<?xml version="1.0" encoding="UTF-8" standalone="no"?>
<svg
   xmlns:dc="http://purl.org/dc/elements/1.1/"
   xmlns:cc="http://creativecommons.org/ns#"
   xmlns:rdf="http://www.w3.org/1999/02/22-rdf-syntax-ns#"
   xmlns:svg="http://www.w3.org/2000/svg"
   xmlns="http://www.w3.org/2000/svg"
   xmlns:sodipodi="http://sodipodi.sourceforge.net/DTD/sodipodi-0.dtd"
   xmlns:inkscape="http://www.inkscape.org/namespaces/inkscape"
   version="1.1"
   id="svg2"
   xml:space="preserve"
   width="2048px"
   viewBox="0 0 2048 2048"
   style="shape-rendering:geometricPrecision; text-rendering:geometricPrecision; image-rendering:optimizeQuality; fill-rule:evenodd; clip-rule:evenodd"
   height="2048px"
   inkscape:version="0.91 r13725"
   sodipodi:docname="apple.svg"><sodipodi:namedview
     pagecolor="#ffffff"
     bordercolor="#666666"
     borderopacity="1"
     objecttolerance="10"
     gridtolerance="10"
     guidetolerance="10"
     inkscape:pageopacity="0"
     inkscape:pageshadow="2"
     inkscape:window-width="640"
     inkscape:window-height="480"
     id="namedview3484"
     showgrid="false"
     inkscape:zoom="0.11523438"
     inkscape:cx="1024"
     inkscape:cy="1024"
     inkscape:window-x="20"
     inkscape:window-y="42"
     inkscape:window-maximized="0"
     inkscape:current-layer="svg2" /><metadata
     id="metadata17"><rdf:RDF><cc:Work
         rdf:about=""><dc:format>image/svg+xml</dc:format><dc:type
           rdf:resource="http://purl.org/dc/dcmitype/StillImage" /><dc:title /></cc:Work></rdf:RDF></metadata><defs
     id="defs4"><style
       id="style6"
       type="text/css"><![CDATA[
    .fil1 {fill:none}
    .fil0 {fill:#424242;fill-rule:nonzero}
   ]]></style></defs><g
     style="fill:#ffffff"
     transform="matrix(1.2227813,0,0,1.2227813,-265.78423,-237.49222)"
     id="Layer_x0020_1"><path
       style="fill:#ffffff;fill-rule:nonzero"
       id="path9"
       d="m 1318.64,413.756 c -14.426,44.2737 -37.767,85.3075 -65.8997,119.436 l 0,0.0626 c -28.3855,34.324 -66.3012,64.6713 -108.482,84.7926 -38.713,18.4665 -81.1489,28.4114 -123.377,25.1197 l -12.9236,-1.00748 -1.702,-12.8681 c -5.4862,-41.4992 0.8492,-83.5099 14.1921,-122.387 15.5268,-45.241 40.6772,-86.5205 67.6642,-117.8 l 0,-0.005 c 27.9272,-32.7142 65.3788,-61.1776 105.487,-81.8009 40.2437,-20.6941 83.465,-33.6343 122.803,-35.237 l 14.8701,-0.6059 1.6299,14.8559 c 4.7646,43.4481 -1.0299,86.8489 -14.2571,127.445 z"
       class="fil0"
       inkscape:connector-curvature="0" /><path
       style="fill:#ffffff;fill-rule:nonzero"
       id="path11"
       d="m 1592.05,804.067 c -14.2559,8.82048 -152.045,94.0808 -150.337,265.937 1.8024,207.182 177.474,279.003 187.171,282.966 l 0.063,0 0.4193,0.1736 13.7835,5.7071 -4.7209,14.1047 c -0.2799,0.8362 0.038,-0.053 -0.3708,1.2591 -4.4823,14.361 -34.8685,111.708 -103.511,212.014 -31.1481,45.4985 -62.8831,90.9284 -100.352,125.971 -38.7957,36.2823 -83.1024,60.7737 -137.837,61.7906 -51.5894,0.9685 -85.3642,-13.6453 -120.474,-28.8366 -33.4784,-14.4862 -68.2949,-29.5524 -122.779,-29.5524 -57.23395,0 -93.81985,15.5858 -129.06005,30.6 -33.1725,14.1319 -65.2548,27.7996 -111.474,29.6433 l -0.0626,0 c -53.3693,1.9819 -99.6485,-24.0343 -140.778,-62.5678 -39.3496,-36.8646 -73.8249,-85.1398 -105.241,-130.579 -70.917,-102.399 -132.592,-251.392 -151.647,-402.892 -15.6732,-124.616 -2.57244,-251.20603 57.6756,-355.75303 33.6331,-58.4953 80.6398,-106.233 135.598,-139.543 54.7075,-33.1571 117.299,-52.0264 182.451,-53.0032 l 0,-10e-4 c 57.0402,-1.03465 110.823,20.3091 157.884,38.9847 33.3059,13.2165 62.98005,24.9933 85.22605,24.9933 19.6536,0 48.6237,-11.4224 82.3949,-24.737 57.0367,-22.487 126.815,-49.9949 200.599,-42.6579 30.9862,1.34764 95.5265,8.76969 161.501,44.524 42.0284,22.7776 84.6579,56.9741 119.701,108.261 l 9.2397,13.5248 -13.8024,8.91261 c -0.7382,0.47717 -0.02,-0.009 -1.259,0.75591 z"
       class="fil0"
       inkscape:connector-curvature="0" /></g><rect
     id="rect13"
     width="2048"
     height="2048"
     class="fil1" /></svg>