<?xml version="1.0" encoding="UTF-8" standalone="no"?>
<!-- Created with Inkscape (http://www.inkscape.org/) -->

<svg
   xmlns:dc="http://purl.org/dc/elements/1.1/"
   xmlns:cc="http://creativecommons.org/ns#"
   xmlns:rdf="http://www.w3.org/1999/02/22-rdf-syntax-ns#"
   xmlns:svg="http://www.w3.org/2000/svg"
   xmlns="http://www.w3.org/2000/svg"
   xmlns:sodipodi="http://sodipodi.sourceforge.net/DTD/sodipodi-0.dtd"
   xmlns:inkscape="http://www.inkscape.org/namespaces/inkscape"
   id="svg3390"
   version="1.1"
   inkscape:version="0.91 r13725"
   width="97.855171"
   height="97.855171"
   viewBox="0 0 97.855171 97.855171"
   sodipodi:docname="deezer.svg">
  <metadata
     id="metadata3396">
    <rdf:RDF>
      <cc:Work
         rdf:about="">
        <dc:format>image/svg+xml</dc:format>
        <dc:type
           rdf:resource="http://purl.org/dc/dcmitype/StillImage" />
        <dc:title />
      </cc:Work>
    </rdf:RDF>
  </metadata>
  <defs
     id="defs3394" />
  <sodipodi:namedview
     pagecolor="#ffffff"
     bordercolor="#666666"
     borderopacity="1"
     objecttolerance="10"
     gridtolerance="10"
     guidetolerance="10"
     inkscape:pageopacity="0"
     inkscape:pageshadow="2"
     inkscape:window-width="1268"
     inkscape:window-height="965"
     id="namedview3392"
     showgrid="false"
     inkscape:zoom="8.1446896"
     inkscape:cx="34.19406"
     inkscape:cy="64.61159"
     inkscape:window-x="0"
     inkscape:window-y="0"
     inkscape:window-maximized="0"
     inkscape:current-layer="svg3390" />
  <path
     style="fill:#ffffff"
     d="m -0.1227798,72.881356 0,-2.67573 8.8872378,0 8.887237,0 0,2.67573 0,2.67573 -8.887237,0 -8.8872379,0 0,-2.67573 z m 20.0679558,0 0,-2.67573 8.887237,0 8.887236,0 0,2.67573 0,2.67573 -8.887236,0 -8.887237,0 0,-2.67573 z m 19.876831,0 0,-2.67573 8.982798,0 8.982799,0 0,2.67573 0,2.67573 -8.982799,0 -8.982798,0 0,-2.67573 z m 20.067955,0 0,-2.67573 8.887237,0 8.887237,0 0,2.67573 0,2.67573 -8.887237,0 -8.887237,0 0,-2.67573 z m 20.067955,0 0,-2.67573 8.887237,0 8.887237,0 0,2.67573 0,2.67573 -8.887237,0 -8.887237,0 0,-2.67573 z m -80.0806969,-7.07156 0,-2.67573 8.8872379,0 8.887237,0 0,2.67573 0,2.67572 -8.887237,0 -8.8872379,0 0,-2.67572 z m 20.0679559,0 0,-2.67573 8.887237,0 8.887236,0 0,2.67573 0,2.67572 -8.887236,0 -8.887237,0 0,-2.67572 z m 19.876831,0 0,-2.67573 8.982798,0 8.982799,0 0,2.67573 0,2.67572 -8.982799,0 -8.982798,0 0,-2.67572 z m 20.067955,0 0,-2.67573 8.887237,0 8.887237,0 0,2.67573 0,2.67572 -8.887237,0 -8.887237,0 0,-2.67572 z m 20.067955,0 0,-2.67573 8.887237,0 8.887237,0 0,2.67573 0,2.67572 -8.887237,0 -8.887237,0 0,-2.67572 z m -80.0806969,-7.07157 0,-2.675728 8.8872379,0 8.887237,0 0,2.675728 0,2.67573 -8.887237,0 -8.8872379,0 0,-2.67573 z m 20.0679559,0 0,-2.675728 8.887237,0 8.887236,0 0,2.675728 0,2.67573 -8.887236,0 -8.887237,0 0,-2.67573 z m 19.876831,0 0,-2.675728 8.982798,0 8.982799,0 0,2.675728 0,2.67573 -8.982799,0 -8.982798,0 0,-2.67573 z m 20.067955,0 0,-2.675728 8.887237,0 8.887237,0 0,2.675728 0,2.67573 -8.887237,0 -8.887237,0 0,-2.67573 z m 20.067955,0 0,-2.675728 8.887237,0 8.887237,0 0,2.675728 0,2.67573 -8.887237,0 -8.887237,0 0,-2.67573 z m -80.0806969,-7.071566 0,-2.675727 8.8872379,0 8.887237,0 0,2.675727 0,2.675728 -8.887237,0 -8.8872379,0 0,-2.675728 z m 39.9871739,0.04778 0.05317,-2.627946 8.887237,0 8.887238,0 0.05317,2.627946 0.05317,2.627947 -8.993586,0 -8.993585,0 0.05317,-2.627947 z m 20.025568,-0.04778 0,-2.675727 8.887237,0 8.887237,0 0,2.675727 0,2.675728 -8.887237,0 -8.887237,0 0,-2.675728 z m 20.067955,0 0,-2.675727 8.887237,0 8.887237,0 0,2.675727 0,2.675728 -8.887237,0 -8.887237,0 0,-2.675728 z m -80.0806969,-6.880441 0,-2.675728 8.8872379,0 8.887237,0 0,2.675728 0,2.675727 -8.887237,0 -8.8872379,0 0,-2.675727 z m 40.0740889,2.550197 c -0.07112,-0.07111 -0.129302,-1.276041 -0.129302,-2.677614 l 0,-2.548311 8.988192,0 8.988192,0 -0.05317,2.627947 -0.05317,2.627946 -8.805716,0.04967 c -4.843145,0.02732 -8.863903,-0.0085 -8.935018,-0.07964 z m 19.938653,-2.550197 0,-2.675728 8.887237,0 8.887237,0 0,2.675728 0,2.675727 -8.887237,0 -8.887237,0 0,-2.675727 z m 20.067955,0 0,-2.675728 8.887237,0 8.887237,0 0,2.675728 0,2.675727 -8.887237,0 -8.887237,0 0,-2.675727 z m -40.13591,-7.071565 0,-2.675728 8.982798,0 8.982799,0 0,2.675728 0,2.675727 -8.982799,0 -8.982798,0 0,-2.675727 z m 40.13591,0 0,-2.675728 8.887237,0 8.887237,0 0,2.675728 0,2.675727 -8.887237,0 -8.887237,0 0,-2.675727 z m -40.13591,-7.071566 0,-2.675727 8.982798,0 8.982799,0 0,2.675727 0,2.675728 -8.982799,0 -8.982798,0 0,-2.675728 z m 40.13591,0 0,-2.675727 8.887237,0 8.887237,0 0,2.675727 0,2.675728 -8.887237,0 -8.887237,0 0,-2.675728 z m 0,-7.071565 0,-2.675727 8.887237,0 8.887237,0 0,2.675727 0,2.675728 -8.887237,0 -8.887237,0 0,-2.675728 z"
     id="path3400"
     inkscape:connector-curvature="0" />
</svg>
