<?xml version="1.0" encoding="UTF-8" standalone="no"?>
<!-- Created with Inkscape (http://www.inkscape.org/) -->

<svg
   xmlns:dc="http://purl.org/dc/elements/1.1/"
   xmlns:cc="http://creativecommons.org/ns#"
   xmlns:rdf="http://www.w3.org/1999/02/22-rdf-syntax-ns#"
   xmlns:svg="http://www.w3.org/2000/svg"
   xmlns="http://www.w3.org/2000/svg"
   xmlns:sodipodi="http://sodipodi.sourceforge.net/DTD/sodipodi-0.dtd"
   xmlns:inkscape="http://www.inkscape.org/namespaces/inkscape"
   id="svg3581"
   version="1.1"
   inkscape:version="0.91 r13725"
   width="512"
   height="512"
   viewBox="0 0 512 512"
   sodipodi:docname="google-play.svg">
  <metadata
     id="metadata3587">
    <rdf:RDF>
      <cc:Work
         rdf:about="">
        <dc:format>image/svg+xml</dc:format>
        <dc:type
           rdf:resource="http://purl.org/dc/dcmitype/StillImage" />
        <dc:title />
      </cc:Work>
    </rdf:RDF>
  </metadata>
  <defs
     id="defs3585" />
  <sodipodi:namedview
     pagecolor="#ffffff"
     bordercolor="#666666"
     borderopacity="1"
     objecttolerance="10"
     gridtolerance="10"
     guidetolerance="10"
     inkscape:pageopacity="0"
     inkscape:pageshadow="2"
     inkscape:window-width="990"
     inkscape:window-height="904"
     id="namedview3583"
     showgrid="false"
     inkscape:zoom="0.65186406"
     inkscape:cx="245.45034"
     inkscape:cy="249.64571"
     inkscape:window-x="44"
     inkscape:window-y="144"
     inkscape:window-maximized="0"
     inkscape:current-layer="svg3581" />
  <path
     style="fill:#000000"
     d="M 78.780457,510.62682 C 78.450263,510.09256 130.99139,456.84617 195.53856,392.30155 L 312.897,274.94769 l 28.546,27.64958 c 15.70028,15.20726 28.54597,28.58053 28.54597,29.71835 0,1.43909 -41.05707,28.14931 -134.88386,87.75049 -74.18614,47.12493 -137.428731,86.99801 -140.539111,88.6069 -5.497645,2.84369 -14.543577,3.96334 -15.785542,1.95381 z M 58.506774,490.46602 C 57.316967,489.27621 57.438974,22.696204 58.629285,21.96055 59.163558,21.630354 112.44199,74.203561 177.02582,138.78993 L 294.45096,256.21964 176.9033,373.76727 C 112.25211,438.41849 58.973652,490.93293 58.506774,490.46602 Z M 362.27494,287.47293 331.93505,256.2181 362.27494,224.96328 c 19.90977,-20.51016 30.99226,-31.08423 32.23752,-30.75859 3.08871,0.80773 62.6401,39.28898 67.04421,43.323 2.22368,2.03681 5.04438,5.86145 6.26824,8.49918 4.45524,9.60217 1.89347,21.40577 -6.26824,28.88164 -4.40411,4.03403 -63.9555,42.51527 -67.04421,43.32298 -1.24526,0.32566 -12.32775,-10.2484 -32.23752,-30.75856 z M 194.99554,119.59165 C 102.77503,27.367516 78.006189,1.974786 79.652335,1.3431001 80.805298,0.90066428 84.061515,0.79936706 86.88837,1.1179932 92.531339,1.7540374 83.128682,-4.069981 268.07672,113.3463 c 56.05174,35.58504 102.07133,65.48332 102.26577,66.44062 0.2865,1.41065 -54.36042,55.89039 -57.12327,56.94852 -0.43127,0.16518 -53.63193,-52.54953 -118.22368,-117.14379 z"
     id="path3591"
     inkscape:connector-curvature="0" />
  <path
     style="fill:#000000"
     d="m 58.601567,256.5712 0,-232.913746 8.820857,7.723972 C 72.273896,35.62961 125.08404,87.992123 184.7783,147.74256 L 293.31333,256.37973 190.14752,359.17168 C 133.40633,415.70728 80.596183,468.15594 72.791642,475.7243 l -14.190075,13.76063 0,-232.91373 z"
     id="path3736"
     inkscape:connector-curvature="0" />
  <path
     style="fill:#000000"
     d="m 58.601567,256.54915 c 0,-127.92346 0.48068,-232.588123 1.068179,-232.588123 0.587498,0 53.406064,52.28176 117.374594,116.181693 l 116.30642,116.18169 -93.21312,93.31604 C 148.87043,400.96428 96.05186,453.34718 82.763046,466.0469 l -24.161479,23.09039 0,-232.58814 z"
     id="path3738"
     inkscape:connector-curvature="0" />
  <path
     style="fill:#ffffff"
     d="m 58.601567,256.54423 c 0,-127.92076 0.489393,-232.583203 1.087541,-232.583203 0.598148,0 53.414682,52.283928 117.370072,116.186503 l 116.28253,116.1865 -99.34484,99.44738 C 139.3572,410.47746 86.540674,462.85597 76.626797,472.1781 l -18.02523,16.94932 0,-232.58319 z"
     id="path3740"
     inkscape:connector-curvature="0" />
  <path
     style="fill:#ffffff"
     d="m 195.90013,393.67001 c 64.11964,-64.1238 116.92803,-116.58499 117.35197,-116.58042 1.45095,0.0156 55.23006,53.18264 55.21349,54.58506 -0.0281,2.38185 -106.58604,71.18854 -230.63294,148.92456 -39.006154,24.44384 -48.312471,29.65953 -52.921363,29.65953 -5.460121,0 -2.836571,-2.75591 110.988843,-116.58873 z"
     id="path3742"
     inkscape:connector-curvature="0" />
  <path
     style="fill:#ffffff"
     d="m 387.6579,311.75129 c -3.37493,-2.83555 -16.98407,-16.53258 -30.24252,-30.43784 l -24.10627,-25.28229 28.37588,-29.27334 c 15.60674,-16.10034 29.72016,-29.7 31.36316,-30.22147 3.7695,-1.19639 56.73714,31.9937 67.4287,42.25156 8.02562,7.70005 10.23633,14.17643 7.7721,22.76872 -2.46762,8.6041 -5.61847,11.99336 -20.39598,21.9393 -18.35865,12.3562 -51.91299,33.4796 -53.12068,33.44095 -0.51598,-0.0165 -3.69945,-2.35003 -7.07439,-5.18559 z"
     id="path3744"
     inkscape:connector-curvature="0" />
  <path
     style="fill:#ffffff"
     d="M 196.97253,120.06455 C 133.52451,56.486169 81.612499,3.6629263 81.612499,2.679567 c 0,-2.11456086 6.140569,-0.916802 13.039529,2.543447 12.640532,6.339998 266.015552,167.519066 272.260662,173.192776 1.95327,1.77456 -1.53503,5.86356 -25.29604,29.65212 -15.15898,15.17652 -27.94928,27.5937 -28.42292,27.5937 -0.47364,0 -52.77318,-52.01869 -116.2212,-115.59706 z"
     id="path3746"
     inkscape:connector-curvature="0" />
</svg>
