<?xml version="1.0" encoding="UTF-8" standalone="no"?>
<svg
   xmlns:dc="http://purl.org/dc/elements/1.1/"
   xmlns:cc="http://creativecommons.org/ns#"
   xmlns:rdf="http://www.w3.org/1999/02/22-rdf-syntax-ns#"
   xmlns:svg="http://www.w3.org/2000/svg"
   xmlns="http://www.w3.org/2000/svg"
   viewBox="0 0 460.79999 460.79999"
   height="460.79999"
   width="460.79999"
   version="1.1"
   id="svg3699">
  <metadata
     id="metadata3705">
    <rdf:RDF>
      <cc:Work
         rdf:about="">
        <dc:format>image/svg+xml</dc:format>
        <dc:type
           rdf:resource="http://purl.org/dc/dcmitype/StillImage" />
        <dc:title></dc:title>
      </cc:Work>
    </rdf:RDF>
  </metadata>
  <defs
     id="defs3703" />
  <path
     id="path3709"
     d="M 137.12262,460.13099 C 102.02611,458.31359 75.954335,450.86327 54.976643,436.65685 47.040094,431.28209 33.22169,417.97738 26.960046,409.68174 16.079188,395.26642 7.4141678,374.00579 3.7849872,352.81908 0.65299357,334.53483 -0.3327691,305.25159 -0.3327691,230.49611 c 0,-98.22652 1.4580003,-120.05547 9.6509197,-144.491549 C 16.177088,65.547185 25.273567,51.096623 40.439821,36.565009 54.294035,23.290535 66.988052,15.743231 86.318475,9.2875733 110.58303,1.1840928 132.68113,-0.2779672 230.89551,-0.2779672 c 98.2144,0 120.31247,1.46206 144.57705,9.5655405 19.33041,6.4556577 32.02444,14.0029617 45.87865,27.2774357 15.16625,14.531614 24.26274,28.982176 31.12167,49.439552 8.19292,24.436079 9.65092,46.265029 9.65092,144.491549 0,98.22653 -1.458,120.05548 -9.65092,144.49155 -6.85893,20.45739 -15.95542,34.90795 -31.12167,49.43958 -13.85421,13.27446 -26.54824,20.82176 -45.87865,27.27743 -14.36882,4.79865 -30.01707,7.25032 -54.25852,8.50085 -23.79012,1.22725 -160.01721,1.17208 -184.09142,-0.0745 z m 178.96226,-41.36173 c 36.97259,-1.80555 55.28277,-6.988 71.79164,-20.31971 17.9782,-14.51826 27.37726,-34.58952 30.77782,-65.72455 1.99128,-18.23182 1.99128,-186.22594 0,-204.45775 C 415.25123,97.108768 405.92504,77.205212 387.8112,62.443142 374.97953,51.985841 357.31202,45.715603 333.32559,43.106106 c -18.2677,-1.987358 -186.59246,-1.987358 -204.86014,0 -23.98643,2.609497 -41.653948,8.879735 -54.485616,19.337036 -18.113841,14.76207 -27.440037,34.665626 -30.843149,65.824108 -1.995753,18.27291 -1.991122,186.24986 0.0056,204.45775 3.11019,28.36084 10.280961,45.74054 24.886745,60.31765 17.147155,17.11347 36.749447,23.81059 75.141677,25.67214 22.9844,1.11448 150.3862,1.15459 172.91413,0.0545 z M 210.10526,347.29253 c -49.20222,-8.76592 -87.83337,-47.64564 -96.31893,-96.93871 -6.30927,-36.65066 5.34389,-74.64213 31.11155,-101.42964 10.36942,-10.77978 18.7324,-17.0852 31.19473,-23.51978 34.71344,-17.92329 74.89236,-17.92329 109.60582,0 45.60183,23.54521 70.99596,74.47077 62.30627,124.94942 -8.55793,49.71341 -47.40116,88.48033 -97.2124,97.02145 -11.04547,1.89397 -29.80612,1.85582 -40.68704,-0.0827 z m 40.56636,-42.40317 c 8.80983,-2.37385 21.35434,-8.80946 28.62455,-14.68502 12.13745,-9.80909 22.11665,-25.16891 26.29777,-40.47704 2.47885,-9.07567 2.47885,-29.38669 0,-38.46235 -5.87139,-21.49662 -20.98179,-39.88295 -40.72409,-49.55309 -12.29415,-6.02187 -19.20947,-7.56085 -33.97434,-7.56085 -14.76486,0 -21.68018,1.53898 -33.97432,7.56085 -15.32107,7.50454 -27.43087,19.59132 -34.94297,34.87667 -5.11841,10.4147 -7.08415,17.92103 -7.82932,29.89659 -2.32432,37.35525 23.54272,70.94691 61.08871,79.33142 8.65785,1.9334 26.55591,1.46508 35.43401,-0.92718 z M 347.32424,133.9849 c -14.21264,-3.9645 -23.14818,-18.21334 -20.15548,-32.14042 1.35181,-6.290852 2.29901,-8.096531 6.93196,-13.21459 10.47912,-11.576331 28.72778,-11.987445 39.83953,-0.897518 8.23656,8.220384 10.4556,21.808708 5.23067,32.030288 -2.44318,4.77963 -9.18132,11.15713 -13.84111,13.10029 -5.06817,2.11346 -12.73773,2.59135 -18.00557,1.12195 z"
     style="fill:#ffffff" />
</svg>
