<?xml version="1.0" encoding="UTF-8" standalone="no"?>
<svg
   xmlns:dc="http://purl.org/dc/elements/1.1/"
   xmlns:cc="http://creativecommons.org/ns#"
   xmlns:rdf="http://www.w3.org/1999/02/22-rdf-syntax-ns#"
   xmlns:svg="http://www.w3.org/2000/svg"
   xmlns="http://www.w3.org/2000/svg"
   viewBox="0 0 281.25 267.1875"
   height="267.1875"
   width="281.25"
   version="1.1"
   id="svg3666">
  <metadata
     id="metadata3672">
    <rdf:RDF>
      <cc:Work
         rdf:about="">
        <dc:format>image/svg+xml</dc:format>
        <dc:type
           rdf:resource="http://purl.org/dc/dcmitype/StillImage" />
        <dc:title></dc:title>
      </cc:Work>
    </rdf:RDF>
  </metadata>
  <defs
     id="defs3670" />
  <path
     id="path3750"
     d="m 126.07753,266.24601 c -46.454317,-5.63786 -85.17529,-42.97426 -94.507804,-91.12843 -0.770248,-3.97434 -1.400447,-7.99758 -1.400447,-8.94051 0,-0.96478 -1.935623,-3.23862 -4.42688,-5.2004 C 13.144978,151.05667 5.1947758,132.19666 6.5754658,115.50753 7.7979991,100.73004 12.962447,89.978337 23.799979,79.648403 l 6.352054,-6.05455 0.0085,-19.125739 0.0085,-19.125738 8.22153,0.604077 c 4.521838,0.332242 10.61158,1.206365 13.532767,1.942494 l 5.311255,1.338417 7.165212,-7.255687 C 78.942245,17.245663 96.365322,7.5397047 116.82841,2.7650354 c 11.50825,-2.68522936 31.70063,-2.94710191 43.29394,-0.561474 21.28675,4.3803131 39.90329,14.3957946 55.26178,29.7302256 l 7.36469,7.353136 4.81267,-1.371869 c 2.64697,-0.754529 8.51236,-1.642053 13.03419,-1.972275 l 8.22153,-0.600403 0,19.220021 0,19.220022 4.90251,4.12446 c 18.30165,15.397089 24.09066,42.336871 13.80549,64.245361 -3.85404,8.20952 -9.33287,15.31237 -15.01508,19.46584 -3.32781,2.43249 -3.62574,3.0335 -4.6197,9.31914 -7.4716,47.24922 -41.61135,84.02787 -87.06971,93.79993 -8.44251,1.81487 -25.95523,2.57542 -34.74338,1.50886 z m 24.10489,-22.53476 c 36.86987,-4.77814 65.51647,-31.09761 75.34566,-69.22487 l 2.32476,-9.01768 0.31535,-52.39421 0.31536,-52.394205 -2.75812,0.581841 c -7.83364,1.652544 -21.93125,9.085473 -30.84772,16.264378 l -4.00718,3.226294 -3.29033,-2.296706 c -8.99806,-6.280804 -20.95111,-11.127999 -32.87125,-13.329936 -19.36424,-3.577042 -41.0967,0.498345 -58.371587,10.94615 L 88.830572,80.61239 84.758584,77.333913 C 78.459972,72.262729 69.516707,66.966672 61.921224,63.810006 50.059427,58.880268 51.308355,52.869825 51.755094,112.73442 c 0.410741,55.04175 0.45109,55.59885 5.035728,69.52806 13.365906,40.60879 52.995578,66.68388 93.391598,61.44877 z m -22.24366,-12.27258 c -5.02172,-1.44001 -12.30268,-4.66165 -13.24661,-5.86129 -0.59447,-0.75554 -0.23717,-2.29606 1.11974,-4.82793 2.26254,-4.22167 1.79225,-4.15074 14.94412,-2.25385 8.30769,1.19822 15.91088,0.76941 28.0247,-1.58055 2.5202,-0.4889 3.05155,-0.19323 4.66295,2.59463 2.65485,4.59316 2.31644,6.01095 -1.95219,8.17885 -8.69993,4.41842 -24.90569,6.22972 -33.55271,3.75014 z m 3.11085,-23.90869 c -6.60722,-3.55069 -13.16513,-8.29009 -15.93011,-11.51271 l -1.67727,-1.95487 26.46659,0 c 29.89783,0 28.68965,-0.45728 18.68588,7.07227 -6.5966,4.96509 -16.07385,9.81253 -19.10136,9.77002 -1.22212,-0.0172 -5.02179,-1.53579 -8.44373,-3.37471 z m -20.01882,-26.5282 c -16.371345,-0.53012 -16.496841,-0.5504 -22.405237,-3.61936 -9.308272,-4.83493 -13.604687,-11.37727 -15.365761,-23.39808 -0.546618,-3.73117 -0.451659,-3.9828 1.49424,-3.95975 15.955525,0.189 39.355288,1.99739 42.234148,3.26396 6.75649,2.97255 11.77028,10.06972 14.85112,21.02216 2.00364,7.12298 1.91119,7.59239 -1.45629,7.39419 -1.58877,-0.0935 -10.29726,-0.40991 -19.35222,-0.70312 z m 34.68424,-0.0289 c 0,-1.46254 3.84723,-12.90131 5.46199,-16.23988 2.56482,-5.30284 7.84052,-10.39601 12.19354,-11.77163 3.40991,-1.0776 27.08989,-2.87615 38.6843,-2.93818 l 4.34424,-0.0232 -0.55983,5.02421 c -0.74068,6.64725 -2.58418,11.07949 -6.51907,15.67352 -4.35338,5.0826 -9.40726,8.01773 -15.83059,9.1939 -6.26676,1.1475 -37.77458,2.04941 -37.77458,1.08131 z M 107.14258,46.571723 c 8.55403,-2.840097 23.49616,-5.321564 32.04374,-5.321564 14.0733,0 30.94287,3.64025 44.30329,9.560105 l 7.11051,3.150591 4.44406,-2.582148 c 2.44424,-1.42018 4.84403,-2.779301 5.33289,-3.020266 1.37434,-0.677451 -5.45668,-6.777363 -13.32445,-11.898373 -28.13806,-18.314611 -64.83324,-18.62038 -92.983566,-0.774805 -7.308597,4.633201 -15.026456,10.78422 -15.001257,11.955776 0.0076,0.352196 2.304564,1.938516 5.104416,3.525156 l 5.09064,2.884798 5.339148,-2.544132 c 2.936526,-1.399271 8.579779,-3.620085 12.540579,-4.935138 z"
     style="fill:#ffffff" />
</svg>
