<?xml version="1.0" encoding="UTF-8" standalone="no"?>
<svg
   xmlns:dc="http://purl.org/dc/elements/1.1/"
   xmlns:cc="http://creativecommons.org/ns#"
   xmlns:rdf="http://www.w3.org/1999/02/22-rdf-syntax-ns#"
   xmlns:svg="http://www.w3.org/2000/svg"
   xmlns="http://www.w3.org/2000/svg"
   xmlns:sodipodi="http://sodipodi.sourceforge.net/DTD/sodipodi-0.dtd"
   xmlns:inkscape="http://www.inkscape.org/namespaces/inkscape"
   viewBox="0 0 16 16"
   fill-rule="evenodd"
   clip-rule="evenodd"
   stroke-linejoin="round"
   stroke-miterlimit="1.414"
   id="svg3488"
   version="1.1"
   inkscape:version="0.91 r13725"
   sodipodi:docname="youtube.svg">
  <metadata
     id="metadata3496">
    <rdf:RDF>
      <cc:Work
         rdf:about="">
        <dc:format>image/svg+xml</dc:format>
        <dc:type
           rdf:resource="http://purl.org/dc/dcmitype/StillImage" />
        <dc:title></dc:title>
      </cc:Work>
    </rdf:RDF>
  </metadata>
  <defs
     id="defs3494" />
  <sodipodi:namedview
     pagecolor="#ffffff"
     bordercolor="#666666"
     borderopacity="1"
     objecttolerance="10"
     gridtolerance="10"
     guidetolerance="10"
     inkscape:pageopacity="0"
     inkscape:pageshadow="2"
     inkscape:window-width="922"
     inkscape:window-height="676"
     id="namedview3492"
     showgrid="true"
     inkscape:zoom="20.85965"
     inkscape:cx="3.7704234"
     inkscape:cy="11.982723"
     inkscape:window-x="10"
     inkscape:window-y="11"
     inkscape:window-maximized="0"
     inkscape:current-layer="svg3488">
    <inkscape:grid
       type="xygrid"
       id="grid3498" />
  </sodipodi:namedview>
  <g
     id="g3504">
    <path
       id="path3490"
       d="M 7.9511719 2.2753906 C 7.9511719 2.2753906 3.7917188 2.3115469 2.5117188 2.4355469 C 2.1557187 2.5025469 1.3560469 2.4821406 0.74804688 3.1191406 C 0.26804688 3.6061406 0.11132812 4.7070312 0.11132812 4.7070312 C 0.11132812 4.7070312 -0.048828125 6.0028751 -0.048828125 7.296875 L -0.048828125 8.5566406 C -0.048828125 9.8516406 0.11132812 11.146484 0.11132812 11.146484 C 0.11132813 11.146484 0.26804688 12.247375 0.74804688 12.734375 C 1.3560469 13.371375 2.1557188 13.350969 2.5117188 13.417969 C 3.7917188 13.540969 7.9511719 13.578125 7.9511719 13.578125 C 7.9511719 13.578125 11.314734 13.574109 13.552734 13.412109 C 13.866734 13.374109 14.54825 13.372375 15.15625 12.734375 C 15.63625 12.248375 15.792969 11.146484 15.792969 11.146484 C 15.792969 11.146484 15.951172 9.8526406 15.951172 8.5566406 L 15.951172 7.2988281 C 15.951172 6.0028282 15.792969 4.7089844 15.792969 4.7089844 C 15.792969 4.7089844 15.63625 3.6051406 15.15625 3.1191406 C 14.54825 2.4811406 13.866734 2.4794062 13.552734 2.4414062 C 11.314734 2.2794063 7.9511719 2.2753906 7.9511719 2.2753906 z "
       style="fill:#ffffff" />
    <path
       inkscape:connector-curvature="0"
       id="path3500"
       d="m 6.3864407,7.8298761 0,-2.1870191 0.8660794,0.4497579 c 2.6331657,1.3674118 3.3287539,1.7351502 3.3126159,1.7512882 -0.0098,0.00983 -0.954053,0.5027701 -2.0982809,1.0954296 l -2.0804144,1.0775623 0,-2.1870189 z"
       style="fill:#000000" />
  </g>
</svg>
